<svg width="24" height="24" viewBox="0 0 24 24" fill="none" xmlns="http://www.w3.org/2000/svg">
<path d="M3.34409 21.6009L1.41895 0H22.5801L20.6524 21.5974L11.9867 24L3.34409 21.6009Z" fill="#1572B6"/>
<path d="M11.999 22.164L19.0019 20.2226L20.6493 1.7666H11.999V22.164Z" fill="#33A9DC"/>
<path d="M11.999 9.59239H15.5047L15.7465 6.87953H11.999V4.2301H12.0085H18.6419L18.5785 4.94067L17.9279 12.2418H11.999V9.59239Z" fill="white"/>
<path d="M12.0156 16.4725L12.0036 16.4759L9.05336 15.6788L8.86479 13.5659H7.43079H6.20508L6.57622 17.7256L12.0028 19.2325L12.0156 19.2291V16.4725Z" fill="#EBEBEB"/>
<path d="M15.2793 12.1293L14.9604 15.677L12.0059 16.4741V19.2307L17.4367 17.7256L17.477 17.2781L17.9373 12.1293H15.2793Z" fill="white"/>
<path d="M12.0089 4.2301V5.87582V6.87267V6.87953H5.61807H5.6095L5.55636 6.28382L5.4355 4.94067L5.37207 4.2301H12.0089Z" fill="#EBEBEB"/>
<path d="M11.9986 9.59259V11.2383V12.2352V12.242H9.09378H9.0852L9.03206 11.6463L8.91206 10.3032L8.84863 9.59259H11.9986Z" fill="#EBEBEB"/>
</svg>
