<svg width="25" height="20" viewBox="0 0 25 20" fill="none" xmlns="http://www.w3.org/2000/svg">
<g clip-path="url(#clip0_32_209)">
<path d="M20.3527 2.0846C18.7992 1.34433 17.138 0.806339 15.4014 0.5C15.1881 0.892716 14.9389 1.42093 14.7671 1.84112C12.921 1.55837 11.0918 1.55837 9.27962 1.84112C9.10785 1.42093 8.85301 0.892716 8.63782 0.5C6.89927 0.806339 5.23622 1.34631 3.68265 2.08852C0.549104 6.91097 -0.30035 11.6136 0.124378 16.2495C2.20271 17.8302 4.21687 18.7904 6.19704 19.4187C6.68595 18.7334 7.12199 18.005 7.49764 17.2372C6.78221 16.9604 6.09699 16.6187 5.44953 16.2221C5.6213 16.0925 5.78932 15.957 5.95164 15.8176C9.90066 17.6986 14.1914 17.6986 18.0932 15.8176C18.2574 15.957 18.4254 16.0925 18.5953 16.2221C17.9459 16.6206 17.2588 16.9623 16.5434 17.2392C16.9191 18.005 17.3532 18.7354 17.844 19.4207C19.8261 18.7923 21.8421 17.8322 23.9205 16.2495C24.4188 10.8754 23.0691 6.21587 20.3527 2.0846ZM8.03564 13.3985C6.85018 13.3985 5.87801 12.2714 5.87801 10.8989C5.87801 9.5264 6.82942 8.39737 8.03564 8.39737C9.24188 8.39737 10.214 9.52442 10.1933 10.8989C10.1951 12.2714 9.24188 13.3985 8.03564 13.3985ZM16.0092 13.3985C14.8237 13.3985 13.8516 12.2714 13.8516 10.8989C13.8516 9.5264 14.803 8.39737 16.0092 8.39737C17.2154 8.39737 18.1876 9.52442 18.1668 10.8989C18.1668 12.2714 17.2154 13.3985 16.0092 13.3985Z" fill="#5865F2"/>
</g>
<defs>
<clipPath id="clip0_32_209">
<rect width="24" height="19" fill="white" transform="translate(0.0224609 0.5)"/>
</clipPath>
</defs>
</svg>
