<svg width="24" height="24" viewBox="0 0 24 24" fill="none" xmlns="http://www.w3.org/2000/svg">
<path d="M3.34495 21.6009L1.41895 0H22.5818L20.6532 21.5974L11.9875 24L3.34495 21.6009Z" fill="#E44F26"/>
<path d="M12.001 22.164L19.0038 20.2226L20.6513 1.7666H12.001V22.164Z" fill="#F1662A"/>
<path d="M12.0003 9.77739H8.49456L8.25285 7.06453H12.0003V4.4151H11.9909H5.35742L5.42085 5.12653L6.07142 12.4268H12.0003V9.77739Z" fill="#EBEBEB"/>
<path d="M12 16.6576L11.988 16.661L9.03774 15.8647L8.84917 13.7519H7.41517H6.18945L6.5606 17.9107L11.988 19.4176L12 19.4142V16.6576Z" fill="#EBEBEB"/>
<path d="M11.9912 9.77747V12.4269H15.2535L14.9466 15.8632L11.9912 16.6603V19.4169L17.4229 17.9109L17.4624 17.4635L18.0846 10.4889L18.1498 9.77747H17.4358H11.9912Z" fill="white"/>
<path d="M11.9912 4.4151V6.06081V7.05853V7.06453H18.3821H18.3906L18.4438 6.46967L18.5646 5.12653L18.6281 4.4151H11.9912Z" fill="white"/>
</svg>
