<svg width="24" height="24" viewBox="0 0 24 24" fill="none" xmlns="http://www.w3.org/2000/svg">
<path d="M0 0H24V24H0V0Z" fill="#F7DF1E"/>
<path d="M6.31058 20.0561L8.14723 18.9446C8.50156 19.5729 8.82388 20.1044 9.59702 20.1044C10.3381 20.1044 10.8054 19.8145 10.8054 18.6869V11.0183H13.0608V18.7188C13.0608 21.0548 11.6915 22.118 9.69371 22.118C7.88948 22.118 6.84217 21.1836 6.31055 20.0559" fill="black"/>
<path d="M14.2861 19.8145L16.1226 18.7512C16.606 19.5407 17.2343 20.1206 18.3458 20.1206C19.2803 20.1206 19.8763 19.6534 19.8763 19.009C19.8763 18.2357 19.2641 17.9618 18.233 17.5109L17.6693 17.269C16.0421 16.5764 14.9627 15.7065 14.9627 13.8699C14.9627 12.1783 16.2515 10.8894 18.2653 10.8894C19.6992 10.8894 20.7302 11.3889 21.4712 12.6938L19.7152 13.8215C19.3285 13.1288 18.9098 12.855 18.2654 12.855C17.6048 12.855 17.1859 13.2738 17.1859 13.8215C17.1859 14.4981 17.6048 14.7721 18.5714 15.191L19.1352 15.4326C21.0523 16.2543 22.1317 17.0919 22.1317 18.9768C22.1317 21.0068 20.5368 22.1183 18.3942 22.1183C16.2999 22.1183 14.9466 21.1195 14.2861 19.8145Z" fill="black"/>
</svg>
