<svg width="21" height="20" viewBox="0 0 21 20" fill="none" xmlns="http://www.w3.org/2000/svg">
<rect x="0.5" width="20" height="20" rx="10" fill="#71EBBE"/>
<g clip-path="url(#clip0_175_38)">
<path d="M15.0745 9.7635L8.82577 6.11544C8.69212 6.04022 8.54059 6.00042 8.38627 6C8.23194 5.99958 8.08019 6.03855 7.94611 6.11304C7.81203 6.18752 7.7003 6.29492 7.62204 6.42456C7.54377 6.55419 7.5017 6.70154 7.5 6.85194L7.5 14.1481C7.5017 14.2985 7.54377 14.4458 7.62204 14.5754C7.7003 14.7051 7.81203 14.8125 7.94611 14.887C8.08019 14.9614 8.23194 15.0004 8.38627 15C8.54059 14.9996 8.69212 14.9598 8.82577 14.8846L15.0745 11.2365C15.2044 11.1597 15.3118 11.0516 15.3863 10.9226C15.4608 10.7936 15.5 10.648 15.5 10.5C15.5 10.352 15.4608 10.2064 15.3863 10.0774C15.3118 9.94839 15.2044 9.84028 15.0745 9.7635Z" fill="#1B1C1E"/>
</g>
<defs>
<clipPath id="clip0_175_38">
<rect width="10" height="10" fill="white" transform="matrix(0 1 -1 0 15.5 5)"/>
</clipPath>
</defs>
</svg>
