<svg width="24" height="24" viewBox="0 0 24 24" fill="none" xmlns="http://www.w3.org/2000/svg">
<g clip-path="url(#clip0_32_205)">
<path d="M5.0481 15.1238C5.0481 16.5143 3.92429 17.6381 2.53382 17.6381C1.14334 17.6381 0.0195312 16.5143 0.0195312 15.1238C0.0195312 13.7333 1.14334 12.6095 2.53382 12.6095H5.0481V15.1238ZM6.30525 15.1238C6.30525 13.7333 7.42905 12.6095 8.81953 12.6095C10.21 12.6095 11.3338 13.7333 11.3338 15.1238V21.4095C11.3338 22.8 10.21 23.9238 8.81953 23.9238C7.42905 23.9238 6.30525 22.8 6.30525 21.4095V15.1238Z" fill="#E01E5A"/>
<path d="M8.81905 5.02857C7.42857 5.02857 6.30476 3.90476 6.30476 2.51429C6.30476 1.12381 7.42857 0 8.81905 0C10.2095 0 11.3333 1.12381 11.3333 2.51429V5.02857H8.81905ZM8.81905 6.30476C10.2095 6.30476 11.3333 7.42857 11.3333 8.81905C11.3333 10.2095 10.2095 11.3333 8.81905 11.3333H2.51429C1.12381 11.3333 0 10.2095 0 8.81905C0 7.42857 1.12381 6.30476 2.51429 6.30476H8.81905Z" fill="#36C5F0"/>
<path d="M18.8951 8.81905C18.8951 7.42857 20.0189 6.30476 21.4094 6.30476C22.7999 6.30476 23.9237 7.42857 23.9237 8.81905C23.9237 10.2095 22.7999 11.3333 21.4094 11.3333H18.8951V8.81905ZM17.6379 8.81905C17.6379 10.2095 16.5141 11.3333 15.1237 11.3333C13.7332 11.3333 12.6094 10.2095 12.6094 8.81905V2.51429C12.6094 1.12381 13.7332 0 15.1237 0C16.5141 0 17.6379 1.12381 17.6379 2.51429V8.81905Z" fill="#2EB67D"/>
<path d="M15.1237 18.8952C16.5141 18.8952 17.6379 20.019 17.6379 21.4095C17.6379 22.8 16.5141 23.9238 15.1237 23.9238C13.7332 23.9238 12.6094 22.8 12.6094 21.4095V18.8952H15.1237ZM15.1237 17.6381C13.7332 17.6381 12.6094 16.5143 12.6094 15.1238C12.6094 13.7333 13.7332 12.6095 15.1237 12.6095H21.4284C22.8189 12.6095 23.9427 13.7333 23.9427 15.1238C23.9427 16.5143 22.8189 17.6381 21.4284 17.6381H15.1237Z" fill="#ECB22E"/>
</g>
<defs>
<clipPath id="clip0_32_205">
<rect width="24" height="24" fill="white"/>
</clipPath>
</defs>
</svg>
