<svg width="24" height="24" viewBox="0 0 24 24" fill="none" xmlns="http://www.w3.org/2000/svg">
<path d="M0 12V24H12H24V12V0H12H0V12Z" fill="#007ACC"/>
<path d="M5.30731 12.0796L5.29969 13.0624H6.8616H8.4235V17.5005V21.9386H9.52826H10.633V17.5005V13.0624H12.1949H13.7568V12.0986C13.7568 11.5653 13.7454 11.1196 13.7302 11.1081C13.7187 11.0929 11.8178 11.0853 9.51303 11.0891L5.31874 11.1005L5.30731 12.0796Z" fill="white"/>
<path d="M19.3655 11.0726C19.975 11.2249 20.4398 11.4954 20.8664 11.9373C21.0874 12.1735 21.415 12.604 21.4417 12.7069C21.4493 12.7373 20.4055 13.4383 19.7731 13.8307C19.7503 13.8459 19.6588 13.7469 19.556 13.5945C19.2474 13.1449 18.9236 12.9507 18.4283 12.9164C17.7007 12.8669 17.2322 13.2478 17.236 13.884C17.236 14.0707 17.2626 14.1811 17.3388 14.3335C17.4988 14.6649 17.796 14.863 18.7293 15.2669C20.4474 16.0059 21.1826 16.4935 21.6398 17.1869C22.1503 17.9602 22.2645 19.1945 21.9179 20.1126C21.5369 21.1107 20.5922 21.7888 19.2626 22.0135C18.8512 22.0859 17.876 22.0745 17.4341 21.9945C16.4703 21.823 15.556 21.3469 14.9922 20.7221C14.7712 20.4783 14.3407 19.8421 14.3674 19.7964C14.3788 19.7811 14.4779 19.7202 14.5883 19.6554C14.695 19.5945 15.0988 19.3621 15.4798 19.1411L16.1693 18.7411L16.3141 18.9545C16.516 19.263 16.9579 19.6859 17.2245 19.8269C17.9903 20.2307 19.0417 20.1735 19.5598 19.7088C19.7807 19.5069 19.8722 19.2973 19.8722 18.9888C19.8722 18.7107 19.8379 18.5888 19.6931 18.3792C19.5064 18.1126 19.1255 17.8878 18.0436 17.4192C16.8055 16.8859 16.2722 16.5545 15.7845 16.0288C15.5026 15.724 15.236 15.2364 15.1255 14.8288C15.0341 14.4897 15.0112 13.6402 15.0836 13.2973C15.3388 12.1011 16.2417 11.2669 17.5445 11.0192C17.9674 10.9392 18.9503 10.9697 19.3655 11.0726Z" fill="white"/>
</svg>
